# xmcd
#
# Track frame offsets:
#	150
#	14874
#	27923
#	42412
#	55729
#	67449
#	82545
#	100310
#	111248
#	112770
#	127955
#	130506
#
# Disc length: 1872 seconds
#
# Revision: 0
# Processed by: cddbd v1.5.1PL0 Copyright (c) Steve Scherf et al.
# Submitted via: dBpowerAMP V4.0
#
DISCID=9b074e0c
DTITLE=Don E. Curtis - Etched In Steel
DYEAR=1900
DGENRE=Country
TTITLE0=Steel Guitar Rag
TTITLE1=3 Days
TTITLE2=Last Date
TTITLE3=Orange Blossom Special
TTITLE4=Pnue Steel Waltz
TTITLE5=A Way To Survive
TTITLE6=Sleepwalk
TTITLE7=Roll In My Sweet Baby's Arms
TTITLE8=Shortest Song In The World
TTITLE9=Honky Tonk
TTITLE10=Prelude In C6
TTITLE11=Visions Of ...
EXTD=
EXTT0=
EXTT1=
EXTT2=
EXTT3=
EXTT4=
EXTT5=
EXTT6=
EXTT7=
EXTT8=
EXTT9=
EXTT10=
EXTT11=
PLAYORDER=
